<mxfile host="app.diagrams.net" agent="Mozilla/5.0 (Windows NT 10.0; Win64; x64) AppleWebKit/537.36 (KHTML, like Gecko) Chrome/130.0.0.0 Safari/537.36" version="24.8.3">
  <diagram name="Consultar perfil de profesor" id="fYUWoig5p-H-awXGTyvt">
    <mxGraphModel dx="978" dy="558" grid="1" gridSize="10" guides="1" tooltips="1" connect="1" arrows="1" fold="1" page="1" pageScale="1" pageWidth="827" pageHeight="1169" math="0" shadow="0">
      <root>
        <mxCell id="0" />
        <mxCell id="1" parent="0" />
        <mxCell id="JDWKEVbigAQIcctzPZba-5" value="" style="rounded=0;whiteSpace=wrap;html=1;" parent="1" vertex="1">
          <mxGeometry x="240" y="340" width="610" height="430" as="geometry" />
        </mxCell>
        <mxCell id="2u_kejNQmcYjoHIHSHl--4" value="Jede de área" style="shape=umlActor;verticalLabelPosition=bottom;verticalAlign=top;html=1;outlineConnect=0;" parent="1" vertex="1">
          <mxGeometry x="170" y="510" width="30" height="60" as="geometry" />
        </mxCell>
        <mxCell id="YrfSEVt-PsMpax3U0DWy-1" value="Seleccionar&amp;nbsp;&lt;div&gt;Profesor&lt;/div&gt;" style="ellipse;whiteSpace=wrap;html=1;" parent="1" vertex="1">
          <mxGeometry x="490" y="510" width="120" height="80" as="geometry" />
        </mxCell>
        <mxCell id="YrfSEVt-PsMpax3U0DWy-2" value="Acceder al menú&amp;nbsp;&lt;div&gt;de profesores&lt;/div&gt;" style="ellipse;whiteSpace=wrap;html=1;" parent="1" vertex="1">
          <mxGeometry x="290" y="510" width="120" height="80" as="geometry" />
        </mxCell>
        <mxCell id="YrfSEVt-PsMpax3U0DWy-4" value="Ver Perfil&amp;nbsp;&lt;div&gt;del Profesor&lt;/div&gt;" style="ellipse;whiteSpace=wrap;html=1;" parent="1" vertex="1">
          <mxGeometry x="700" y="510" width="120" height="80" as="geometry" />
        </mxCell>
        <mxCell id="JDWKEVbigAQIcctzPZba-1" value="Eliminar Profesor" style="ellipse;whiteSpace=wrap;html=1;" parent="1" vertex="1">
          <mxGeometry x="700" y="660" width="120" height="80" as="geometry" />
        </mxCell>
        <mxCell id="JDWKEVbigAQIcctzPZba-2" value="&amp;lt;&amp;lt;extend&amp;gt;&amp;gt;" style="html=1;verticalAlign=bottom;labelBackgroundColor=none;endArrow=open;endFill=0;dashed=1;rounded=0;exitX=0.5;exitY=0;exitDx=0;exitDy=0;entryX=0.5;entryY=1;entryDx=0;entryDy=0;" parent="1" source="JDWKEVbigAQIcctzPZba-1" target="YrfSEVt-PsMpax3U0DWy-4" edge="1">
          <mxGeometry width="160" relative="1" as="geometry">
            <mxPoint x="260" y="640" as="sourcePoint" />
            <mxPoint x="360" y="730" as="targetPoint" />
          </mxGeometry>
        </mxCell>
        <mxCell id="JDWKEVbigAQIcctzPZba-6" value="" style="endArrow=none;html=1;rounded=0;entryX=0;entryY=0.5;entryDx=0;entryDy=0;" parent="1" target="YrfSEVt-PsMpax3U0DWy-2" edge="1">
          <mxGeometry width="50" height="50" relative="1" as="geometry">
            <mxPoint x="210" y="550" as="sourcePoint" />
            <mxPoint x="550" y="570" as="targetPoint" />
          </mxGeometry>
        </mxCell>
        <mxCell id="JDWKEVbigAQIcctzPZba-8" value="&amp;lt;&amp;lt;extend&amp;gt;&amp;gt;" style="html=1;verticalAlign=bottom;labelBackgroundColor=none;endArrow=open;endFill=0;dashed=1;rounded=0;exitX=0;exitY=0.5;exitDx=0;exitDy=0;entryX=1;entryY=0.5;entryDx=0;entryDy=0;" parent="1" source="YrfSEVt-PsMpax3U0DWy-1" target="YrfSEVt-PsMpax3U0DWy-2" edge="1">
          <mxGeometry width="160" relative="1" as="geometry">
            <mxPoint x="820" y="680" as="sourcePoint" />
            <mxPoint x="820" y="610" as="targetPoint" />
          </mxGeometry>
        </mxCell>
        <mxCell id="DeSKDXIqaLilFEfRsRjt-1" value="Filtrar lista de profesores" style="ellipse;whiteSpace=wrap;html=1;" parent="1" vertex="1">
          <mxGeometry x="460" y="380" width="120" height="80" as="geometry" />
        </mxCell>
        <mxCell id="DeSKDXIqaLilFEfRsRjt-2" value="&amp;lt;&amp;lt;extend&amp;gt;&amp;gt;" style="html=1;verticalAlign=bottom;labelBackgroundColor=none;endArrow=open;endFill=0;dashed=1;rounded=0;exitX=0;exitY=1;exitDx=0;exitDy=0;entryX=1;entryY=0;entryDx=0;entryDy=0;" parent="1" source="DeSKDXIqaLilFEfRsRjt-1" target="YrfSEVt-PsMpax3U0DWy-2" edge="1">
          <mxGeometry width="160" relative="1" as="geometry">
            <mxPoint x="540" y="560" as="sourcePoint" />
            <mxPoint x="450" y="560" as="targetPoint" />
          </mxGeometry>
        </mxCell>
        <mxCell id="DeSKDXIqaLilFEfRsRjt-3" value="&amp;lt;&amp;lt;include&amp;gt;&amp;gt;" style="endArrow=open;endSize=12;dashed=1;html=1;rounded=0;exitX=1;exitY=0.5;exitDx=0;exitDy=0;entryX=0;entryY=0.5;entryDx=0;entryDy=0;" parent="1" source="YrfSEVt-PsMpax3U0DWy-1" target="YrfSEVt-PsMpax3U0DWy-4" edge="1">
          <mxGeometry width="160" relative="1" as="geometry">
            <mxPoint x="361" y="345" as="sourcePoint" />
            <mxPoint x="510" y="325" as="targetPoint" />
          </mxGeometry>
        </mxCell>
      </root>
    </mxGraphModel>
  </diagram>
</mxfile>
